<svg xmlns="http://www.w3.org/2000/svg" viewBox="0 0 100 100"><title>Centrx</title><path fill="#0A5CFF" d="M14.71 14.66L37.48 27.55A11.98 11.98 0 0 1 43.56 37.98L43.56 43.08A11.59 11.59 0 0 1 26.66 53.38L10.54 45.08A9.37 9.37 0 0 1 5.46 36.75L5.46 20.05A6.19 6.19 0 0 1 14.71 14.66ZM11.58 69.84L34.2 59.6A7.37 7.37 0 0 1 44.61 66.31L44.61 77.25A12.34 12.34 0 0 1 37.66 88.35L15.16 99.28A6.46 6.46 0 0 1 5.88 93.47L5.88 78.68A9.7 9.7 0 0 1 11.58 69.84ZM60.07 12.14L83.56 0.7A6.85 6.85 0 0 1 93.41 6.87L93.41 24.23A10.38 10.38 0 0 1 87.55 33.58L63.42 45.23A7.61 7.61 0 0 1 52.51 38.38L52.51 24.23A13.45 13.45 0 0 1 60.07 12.14ZM75.16 51.73L89.43 59.69A9.95 9.95 0 0 1 94.54 68.39L94.54 86.23A6.15 6.15 0 0 1 85.44 91.62L60.86 78.18A11.99 11.99 0 0 1 54.62 67.65L54.62 63.79A13.81 13.81 0 0 1 75.16 51.73Z"/></svg>
